<svg width="34" height="34" viewBox="0 0 34 34" fill="none" xmlns="http://www.w3.org/2000/svg">
<path d="M14.5325 19.4675C15.25 20.15 15.25 21.27 14.5325 21.9525C13.85 22.635 12.73 22.635 12.0475 21.9525C10.4084 20.311 9.48782 18.086 9.48782 15.7663C9.48782 13.4465 10.4084 11.2216 12.0475 9.58003L18.2425 3.38503C19.8841 1.74594 22.109 0.825317 24.4288 0.825317C26.7485 0.825317 28.9735 1.74594 30.615 3.38503C32.2541 5.02658 33.1747 7.25152 33.1747 9.57128C33.1747 11.891 32.2541 14.116 30.615 15.7575L28.0075 18.365C28.025 16.93 27.7975 15.495 27.3075 14.13L28.13 13.29C28.6206 12.8047 29.0101 12.227 29.2759 11.5901C29.5417 10.9533 29.6786 10.2701 29.6786 9.58003C29.6786 8.88996 29.5417 8.20675 29.2759 7.56992C29.0101 6.9331 28.6206 6.35532 28.13 5.87003C27.6447 5.37944 27.0669 4.98997 26.4301 4.72416C25.7933 4.45836 25.1101 4.32149 24.42 4.32149C23.73 4.32149 23.0467 4.45836 22.4099 4.72416C21.7731 4.98997 21.1953 5.37944 20.71 5.87003L14.5325 12.0475C14.0419 12.5328 13.6525 13.1106 13.3867 13.7474C13.1209 14.3842 12.984 15.0675 12.984 15.7575C12.984 16.4476 13.1209 17.1308 13.3867 17.7676C13.6525 18.4045 14.0419 18.9822 14.5325 19.4675ZM19.4675 12.0475C20.15 11.365 21.27 11.365 21.9525 12.0475C23.5916 13.6891 24.5122 15.914 24.5122 18.2338C24.5122 20.5535 23.5916 22.7785 21.9525 24.42L15.7575 30.615C14.116 32.2541 11.891 33.1747 9.57128 33.1747C7.25152 33.1747 5.02658 32.2541 3.38503 30.615C1.74594 28.9735 0.825317 26.7485 0.825317 24.4288C0.825317 22.109 1.74594 19.8841 3.38503 18.2425L5.99253 15.635C5.97503 17.07 6.20253 18.505 6.69253 19.8875L5.87003 20.71C5.37944 21.1953 4.98997 21.7731 4.72416 22.4099C4.45836 23.0467 4.32149 23.73 4.32149 24.42C4.32149 25.1101 4.45836 25.7933 4.72416 26.4301C4.98997 27.0669 5.37944 27.6447 5.87003 28.13C6.35532 28.6206 6.9331 29.0101 7.56992 29.2759C8.20675 29.5417 8.88996 29.6786 9.58003 29.6786C10.2701 29.6786 10.9533 29.5417 11.5901 29.2759C12.227 29.0101 12.8047 28.6206 13.29 28.13L19.4675 21.9525C19.9581 21.4672 20.3476 20.8895 20.6134 20.2526C20.8792 19.6158 21.0161 18.9326 21.0161 18.2425C21.0161 17.5525 20.8792 16.8692 20.6134 16.2324C20.3476 15.5956 19.9581 15.0178 19.4675 14.5325C19.2976 14.3733 19.1621 14.1808 19.0695 13.9671C18.9768 13.7534 18.9291 13.5229 18.9291 13.29C18.9291 13.0571 18.9768 12.8267 19.0695 12.6129C19.1621 12.3992 19.2976 12.2068 19.4675 12.0475Z" fill="#333333"/>
</svg>
