<svg width="18" height="18" viewBox="0 0 18 18" fill="none" xmlns="http://www.w3.org/2000/svg">
<path d="M6.42041 11.789C6.42041 11.2983 6.48174 10.8263 6.60441 10.373C6.73241 9.91968 6.90841 9.50102 7.13241 9.11702C7.36174 8.72768 7.63374 8.37568 7.94841 8.06102C8.26841 7.74102 8.62308 7.46902 9.01241 7.24502C9.40174 7.02102 9.82041 6.84768 10.2684 6.72502C10.7217 6.60235 11.1937 6.54102 11.6844 6.54102C12.4097 6.54102 13.0897 6.67702 13.7244 6.94902C14.3644 7.21568 14.9191 7.58635 15.3884 8.06102C15.8631 8.53035 16.2364 9.08502 16.5084 9.72502C16.7857 10.3597 16.9244 11.0477 16.9244 11.789C16.9244 12.2797 16.8604 12.7517 16.7324 13.205C16.6097 13.653 16.4337 14.0717 16.2044 14.461C15.9804 14.8504 15.7084 15.205 15.3884 15.525C15.0737 15.8397 14.7217 16.1117 14.3324 16.341C13.9431 16.565 13.5244 16.7383 13.0764 16.861C12.6337 16.9837 12.1697 17.045 11.6844 17.045C11.1937 17.045 10.7217 16.9837 10.2684 16.861C9.82041 16.7383 9.40174 16.565 9.01241 16.341C8.62308 16.1117 8.26841 15.8397 7.94841 15.525C7.63374 15.205 7.36174 14.8504 7.13241 14.461C6.90841 14.0717 6.73241 13.653 6.60441 13.205C6.48174 12.7517 6.42041 12.2797 6.42041 11.789ZM9.34041 11.789C9.34041 12.141 9.39374 12.4717 9.50041 12.781C9.61241 13.085 9.76708 13.349 9.96441 13.573C10.1671 13.797 10.4097 13.9757 10.6924 14.109C10.9804 14.237 11.3031 14.301 11.6604 14.301C12.0071 14.301 12.3191 14.237 12.5964 14.109C12.8791 13.9757 13.1164 13.797 13.3084 13.573C13.5057 13.349 13.6551 13.085 13.7564 12.781C13.8631 12.4717 13.9164 12.141 13.9164 11.789C13.9164 11.4477 13.8631 11.1223 13.7564 10.813C13.6551 10.5037 13.5057 10.2317 13.3084 9.99702C13.1164 9.76235 12.8791 9.57835 12.5964 9.44502C12.3191 9.30635 12.0071 9.23702 11.6604 9.23702C11.3031 9.23702 10.9804 9.30635 10.6924 9.44502C10.4097 9.57835 10.1671 9.76235 9.96441 9.99702C9.76708 10.2317 9.61241 10.5037 9.50041 10.813C9.39374 11.1223 9.34041 11.4477 9.34041 11.789Z" fill="#45C6D7"/>
<path d="M7.8951 8.192C7.96977 8.13867 8.0391 8.10667 8.1031 8.096C8.17244 8.08 8.22577 8.072 8.2631 8.072C8.35377 8.072 8.43644 8.09067 8.5111 8.128C8.58577 8.16533 8.6631 8.24533 8.7431 8.368L9.6391 9.72C9.66577 9.76267 9.68977 9.81067 9.7111 9.864C9.73777 9.91733 9.7511 9.96 9.7511 9.992C9.7511 10.1147 9.7111 10.216 9.6311 10.296C9.55644 10.3707 9.47377 10.4373 9.3831 10.496C8.94577 10.8 8.46577 11.0453 7.9431 11.232C7.42577 11.4133 6.87644 11.504 6.2951 11.504C5.8151 11.504 5.3511 11.4427 4.9031 11.32C4.46043 11.1973 4.0471 11.024 3.6631 10.8C3.2791 10.5707 2.9271 10.2987 2.6071 9.984C2.2871 9.664 2.0151 9.30933 1.7911 8.92C1.5671 8.53067 1.3911 8.112 1.2631 7.664C1.14043 7.21067 1.0791 6.73867 1.0791 6.248C1.0791 5.75733 1.14043 5.28533 1.2631 4.832C1.3911 4.37867 1.5671 3.96 1.7911 3.576C2.0151 3.18667 2.2871 2.83467 2.6071 2.52C2.9271 2.2 3.2791 1.928 3.6631 1.704C4.0471 1.48 4.46043 1.30667 4.9031 1.184C5.3511 1.06133 5.8151 1 6.2951 1C6.87644 1 7.41244 1.07733 7.9031 1.232C8.3991 1.38667 8.8631 1.616 9.2951 1.92L9.2711 1.896C9.38844 1.96533 9.48177 2.048 9.5511 2.144C9.62044 2.23467 9.6551 2.34933 9.6551 2.488C9.6551 2.584 9.6231 2.68267 9.5591 2.784L8.8471 3.992C8.69777 4.25333 8.51644 4.384 8.3031 4.384C8.2551 4.384 8.19643 4.37333 8.1271 4.352C8.05777 4.32533 7.98043 4.28267 7.8951 4.224C7.66044 4.06933 7.4071 3.944 7.1351 3.848C6.86844 3.74667 6.5831 3.696 6.2791 3.696C5.9431 3.696 5.63377 3.76533 5.3511 3.904C5.06844 4.03733 4.82577 4.22133 4.6231 4.456C4.42577 4.69067 4.2711 4.96267 4.1591 5.272C4.0471 5.58133 3.9911 5.90667 3.9911 6.248C3.9911 6.6 4.0471 6.93067 4.1591 7.24C4.2711 7.544 4.42577 7.808 4.6231 8.032C4.82577 8.256 5.06844 8.43467 5.3511 8.568C5.63377 8.696 5.9431 8.76 6.2791 8.76C6.5831 8.76 6.86844 8.70667 7.1351 8.6C7.40177 8.49333 7.6551 8.35733 7.8951 8.192Z" fill="#45C6D7"/>
</svg>
