<svg width="38" height="35" viewBox="0 0 38 35" fill="none" xmlns="http://www.w3.org/2000/svg">
<path d="M19 0.25C29.1483 0.25 37.375 6.662 37.375 14.5738C37.375 22.4838 29.1483 28.8957 19 28.8957C17.9895 28.8963 16.98 28.832 15.9777 28.7033L8.26375 33.7485C7.387 34.2122 7.07725 34.1615 7.43775 33.0257L8.99875 26.5893C3.95875 24.0343 0.625 19.6068 0.625 14.5738C0.625 6.66375 8.85175 0.25 19 0.25ZM29.3372 14.355L31.9098 11.863C32.0582 11.7088 32.141 11.5031 32.1407 11.2891C32.1405 11.0751 32.0572 10.8695 31.9084 10.7157C31.7596 10.5619 31.5569 10.4719 31.343 10.4646C31.1291 10.4572 30.9207 10.5332 30.7618 10.6765L27.3877 13.942V11.2435C27.3877 11.0244 27.3007 10.8143 27.1458 10.6594C26.9909 10.5045 26.7808 10.4175 26.5617 10.4175C26.3427 10.4175 26.1326 10.5045 25.9777 10.6594C25.8228 10.8143 25.7358 11.0244 25.7358 11.2435V15.7182C25.7048 15.8459 25.7048 15.9791 25.7358 16.1067V18.625C25.7358 18.8441 25.8228 19.0542 25.9777 19.2091C26.1326 19.364 26.3427 19.451 26.5617 19.451C26.7808 19.451 26.9909 19.364 27.1458 19.2091C27.3007 19.0542 27.3877 18.8441 27.3877 18.625V16.2397L28.135 15.517L30.634 19.0747C30.6964 19.1636 30.7757 19.2392 30.8673 19.2974C30.9589 19.3556 31.0611 19.3952 31.1681 19.4139C31.275 19.4325 31.3846 19.43 31.4905 19.4063C31.5964 19.3827 31.6967 19.3384 31.7855 19.276C31.8743 19.2136 31.95 19.1343 32.0082 19.0427C32.0664 18.9511 32.1059 18.8489 32.1246 18.7419C32.1433 18.635 32.1407 18.5254 32.1171 18.4195C32.0934 18.3136 32.0491 18.2133 31.9867 18.1245L29.3372 14.3533V14.355ZM24.1608 17.722H21.6058V11.2697C21.596 11.0575 21.5048 10.8572 21.3511 10.7104C21.1974 10.5636 20.9931 10.4818 20.7806 10.4818C20.5681 10.4818 20.3638 10.5636 20.2102 10.7104C20.0565 10.8572 19.9653 11.0575 19.9555 11.2697V18.548C19.9555 19.003 20.323 19.374 20.7798 19.374H24.1608C24.3798 19.374 24.5899 19.287 24.7448 19.1321C24.8997 18.9772 24.9867 18.7671 24.9867 18.548C24.9867 18.3289 24.8997 18.1188 24.7448 17.9639C24.5899 17.809 24.3798 17.722 24.1608 17.722ZM13.911 15.811L15.129 12.8238L16.2455 15.811H13.911ZM18.3263 16.665L18.3298 16.637C18.3293 16.4289 18.2499 16.2287 18.1075 16.077L16.277 11.177C16.2003 10.9435 16.0541 10.739 15.858 10.5907C15.662 10.4425 15.4253 10.3577 15.1798 10.3475C14.9324 10.3464 14.6905 10.4207 14.4864 10.5604C14.2822 10.7002 14.1255 10.8987 14.037 11.1298L11.1302 18.261C11.0892 18.3614 11.0684 18.469 11.0689 18.5774C11.0695 18.6859 11.0914 18.7932 11.1334 18.8933C11.1754 18.9933 11.2367 19.084 11.3137 19.1604C11.3908 19.2367 11.4822 19.2971 11.5826 19.3381C11.6831 19.3791 11.7906 19.4 11.8991 19.3995C12.0075 19.3989 12.1149 19.377 12.2149 19.335C12.3149 19.293 12.4057 19.2317 12.482 19.1546C12.5583 19.0775 12.6187 18.9862 12.6597 18.8857L13.2372 17.463H16.8598L17.383 18.863C17.4186 18.9676 17.4748 19.0641 17.5483 19.1466C17.6218 19.2291 17.7112 19.2961 17.811 19.3434C17.9109 19.3908 18.0193 19.4177 18.1297 19.4224C18.2401 19.4271 18.3504 19.4096 18.4539 19.371C18.5575 19.3323 18.6522 19.2733 18.7325 19.1973C18.8128 19.1214 18.8771 19.0301 18.9215 18.9289C18.9659 18.8277 18.9895 18.7186 18.991 18.6081C18.9924 18.4975 18.9717 18.3879 18.93 18.2855L18.3263 16.665ZM12.5128 11.2785C12.5128 11.0597 12.426 10.8499 12.2714 10.695C12.1169 10.5402 11.9073 10.453 11.6885 10.4525H6.00975C5.79068 10.4525 5.58059 10.5395 5.42568 10.6944C5.27077 10.8493 5.18375 11.0594 5.18375 11.2785C5.18375 11.4976 5.27077 11.7077 5.42568 11.8626C5.58059 12.0175 5.79068 12.1045 6.00975 12.1045H8.03975V18.6425C8.03975 18.8616 8.12677 19.0717 8.28168 19.2266C8.43658 19.3815 8.64668 19.4685 8.86575 19.4685C9.08482 19.4685 9.29492 19.3815 9.44982 19.2266C9.60472 19.0717 9.69175 18.8616 9.69175 18.6425V12.1045H11.6868C11.9058 12.1045 12.1159 12.0175 12.2708 11.8626C12.4257 11.7077 12.5128 11.4976 12.5128 11.2785Z" fill="#F6FB00"/>
</svg>
